<?xml version="1.0" encoding="UTF-8" standalone="no"?>
<!-- Created with Inkscape (http://www.inkscape.org/) -->

<svg
   width="124mm"
   height="124mm"
   viewBox="0 0 124 124"
   version="1.1"
   id="svg1"
   sodipodi:docname="logo--black.svg"
   inkscape:version="1.4.2 (2aeb623e1d, 2025-05-12)"
   xmlns:inkscape="http://www.inkscape.org/namespaces/inkscape"
   xmlns:sodipodi="http://sodipodi.sourceforge.net/DTD/sodipodi-0.dtd"
   xmlns="http://www.w3.org/2000/svg"
   xmlns:svg="http://www.w3.org/2000/svg">
  <sodipodi:namedview
     id="namedview1"
     pagecolor="#ffffff"
     bordercolor="#666666"
     borderopacity="1.0"
     inkscape:showpageshadow="2"
     inkscape:pageopacity="0.0"
     inkscape:pagecheckerboard="0"
     inkscape:deskcolor="#d1d1d1"
     inkscape:document-units="mm"
     showgrid="false"
     inkscape:zoom="1.4722043"
     inkscape:cx="107.32206"
     inkscape:cy="218.71964"
     inkscape:window-width="1920"
     inkscape:window-height="1011"
     inkscape:window-x="0"
     inkscape:window-y="32"
     inkscape:window-maximized="1"
     inkscape:current-layer="layer2" />
  <defs
     id="defs1" />
  <g
     inkscape:label="logo--dev"
     inkscape:groupmode="layer"
     id="layer1"
     transform="translate(-35,-28.5)"
     style="display:none"
     sodipodi:insensitive="true">
    <circle
       style="fill:#000000;fill-opacity:1;stroke:none;stroke-width:2.52714;stroke-linecap:round;stroke-linejoin:round;stroke-dasharray:none;stroke-opacity:1"
       id="path2-9-5"
       cx="-4.5961943"
       cy="82.582527"
       r="8.7364302"
       transform="matrix(-0.70710678,0.70710678,0.70710678,0.70710678,0,0)"
       inkscape:label="circle-8" />
    <circle
       style="fill:#000000;fill-opacity:1;stroke:none;stroke-width:2.52714;stroke-linecap:round;stroke-linejoin:round;stroke-dasharray:none;stroke-opacity:1"
       id="path2-9"
       cx="90.5"
       cy="47"
       r="8.7364302"
       transform="matrix(0,1,1,0,1.2083333e-6,-1.2083333e-6)"
       inkscape:label="circle-7" />
    <circle
       style="fill:#000000;fill-opacity:1;stroke:none;stroke-width:2.52714;stroke-linecap:round;stroke-linejoin:round;stroke-dasharray:none;stroke-opacity:1"
       id="path2-1-7"
       cx="132.58252"
       cy="45.403805"
       r="8.7364302"
       transform="rotate(45,2.062754e-6,8.5442074e-7)"
       inkscape:label="circle-6" />
    <circle
       style="fill:#000000;fill-opacity:1;stroke:none;stroke-width:2.52714;stroke-linecap:round;stroke-linejoin:round;stroke-dasharray:none;stroke-opacity:1"
       id="path2-1"
       cx="97"
       cy="140.5"
       r="8.7364302"
       inkscape:label="circle-5"
       transform="translate(1.2083333e-6)" />
    <circle
       style="fill:#000000;fill-opacity:1;stroke:none;stroke-width:2.52714;stroke-linecap:round;stroke-linejoin:round;stroke-dasharray:none;stroke-opacity:1"
       id="path2-1-3-4"
       cx="-4.5961943"
       cy="182.58252"
       r="8.7364302"
       transform="matrix(-0.70710678,0.70710678,0.70710678,0.70710678,0,0)"
       inkscape:label="circle-4" />
    <circle
       style="fill:#000000;fill-opacity:1;stroke:none;stroke-width:2.52714;stroke-linecap:round;stroke-linejoin:round;stroke-dasharray:none;stroke-opacity:1"
       id="path2-1-3"
       cx="90.5"
       cy="147"
       r="8.7364302"
       transform="matrix(0,1,1,0,1.2083333e-6,-1.2083333e-6)"
       inkscape:label="circle-3" />
    <circle
       style="fill:#000000;fill-opacity:1;stroke:none;stroke-width:2.52714;stroke-linecap:round;stroke-linejoin:round;stroke-dasharray:none;stroke-opacity:1"
       id="path2-0"
       cx="132.58252"
       cy="-54.596195"
       r="8.7364302"
       transform="rotate(45,2.062754e-6,8.5442074e-7)"
       inkscape:label="circle-2" />
    <circle
       style="fill:#000000;fill-opacity:1;stroke:none;stroke-width:2.52714;stroke-linecap:round;stroke-linejoin:round;stroke-dasharray:none;stroke-opacity:1"
       id="path2"
       cx="97"
       cy="40.5"
       r="8.7364302"
       inkscape:label="circle-1"
       transform="translate(1.2083333e-6)" />
    <path
       style="baseline-shift:baseline;display:inline;overflow:visible;opacity:1;vector-effect:none;stroke-linecap:round;stroke-linejoin:round;enable-background:accumulate;stop-color:#000000;stop-opacity:1"
       d="m 97,39.775391 c -27.99299,0 -50.724609,22.731619 -50.724609,50.724609 0,27.99299 22.731619,50.72461 50.724609,50.72461 27.99299,0 50.72461,-22.73162 50.72461,-50.72461 0,-27.99299 -22.73162,-50.724609 -50.72461,-50.724609 z m 0,3.703125 c 25.99111,0 47.02148,21.030376 47.02148,47.021484 0,25.99111 -21.03037,47.02148 -47.02148,47.02148 -25.991108,0 -47.021484,-21.03037 -47.021484,-47.02148 0,-25.991108 21.030376,-47.021484 47.021484,-47.021484 z"
       id="path1"
       transform="translate(1.2083333e-6)"
       inkscape:label="circle-fill" />
    <circle
       style="display:none;fill:none;fill-opacity:1;stroke:#000000;stroke-width:3.17459;stroke-linecap:round;stroke-linejoin:round;stroke-dasharray:none;stroke-opacity:1"
       id="path19"
       cx="97"
       cy="90.5"
       r="48.412704"
       inkscape:label="circle-stroke" />
  </g>
  <g
     inkscape:groupmode="layer"
     id="layer2"
     inkscape:label="logo--one-shape">
    <circle
       style="fill:#000000;fill-opacity:1;stroke:none;stroke-width:2.52714;stroke-linecap:round;stroke-linejoin:round;stroke-dasharray:none;stroke-opacity:1"
       id="path2-9-5-1"
       cx="5.2525894e-07"
       cy="37.681248"
       r="8.7364302"
       transform="matrix(-0.70710678,0.70710678,0.70710678,0.70710678,0,0)"
       inkscape:label="circle-8" />
    <circle
       style="fill:#000000;fill-opacity:1;stroke:none;stroke-width:2.52714;stroke-linecap:round;stroke-linejoin:round;stroke-dasharray:none;stroke-opacity:1"
       id="path2-9-59"
       cx="62"
       cy="12.000001"
       r="8.7364302"
       transform="matrix(0,1,1,0,0,0)"
       inkscape:label="circle-7" />
    <circle
       style="fill:#000000;fill-opacity:1;stroke:none;stroke-width:2.52714;stroke-linecap:round;stroke-linejoin:round;stroke-dasharray:none;stroke-opacity:1"
       id="path2-1-7-4"
       cx="87.681236"
       cy="49.999996"
       r="8.7364302"
       transform="rotate(45)"
       inkscape:label="circle-6" />
    <circle
       style="fill:#000000;fill-opacity:1;stroke:none;stroke-width:2.52714;stroke-linecap:round;stroke-linejoin:round;stroke-dasharray:none;stroke-opacity:1"
       id="path2-1-9"
       cx="62"
       cy="112"
       r="8.7364302"
       inkscape:label="circle-5" />
    <circle
       style="fill:#000000;fill-opacity:1;stroke:none;stroke-width:2.52714;stroke-linecap:round;stroke-linejoin:round;stroke-dasharray:none;stroke-opacity:1"
       id="path2-1-3-4-0"
       cx="5.2525894e-07"
       cy="137.68124"
       r="8.7364302"
       transform="matrix(-0.70710678,0.70710678,0.70710678,0.70710678,0,0)"
       inkscape:label="circle-4" />
    <circle
       style="fill:#000000;fill-opacity:1;stroke:none;stroke-width:2.52714;stroke-linecap:round;stroke-linejoin:round;stroke-dasharray:none;stroke-opacity:1"
       id="path2-1-3-9"
       cx="62"
       cy="112"
       r="8.7364302"
       transform="matrix(0,1,1,0,0,0)"
       inkscape:label="circle-3" />
    <circle
       style="fill:#000000;fill-opacity:1;stroke:none;stroke-width:2.52714;stroke-linecap:round;stroke-linejoin:round;stroke-dasharray:none;stroke-opacity:1"
       id="path2-0-1"
       cx="87.681236"
       cy="-50.000004"
       r="8.7364302"
       transform="rotate(45)"
       inkscape:label="circle-2" />
    <circle
       style="fill:#000000;fill-opacity:1;stroke:none;stroke-width:2.52714;stroke-linecap:round;stroke-linejoin:round;stroke-dasharray:none;stroke-opacity:1"
       id="path2-7"
       cx="62"
       cy="12.000001"
       r="8.7364302"
       inkscape:label="circle-1" />
    <path
       style="baseline-shift:baseline;display:inline;overflow:visible;opacity:1;vector-effect:none;stroke-linecap:round;stroke-linejoin:round;enable-background:accumulate;stop-color:#000000;stop-opacity:1"
       d="M 62,11.275391 C 34.00701,11.275391 11.275391,34.00701 11.275391,62 11.275391,89.99299 34.00701,112.72461 62,112.72461 89.99299,112.72461 112.72461,89.99299 112.72461,62 112.72461,34.00701 89.99299,11.275391 62,11.275391 Z m 0,3.703125 c 25.991108,0 47.02148,21.030376 47.02148,47.021484 0,25.991108 -21.030372,47.02148 -47.02148,47.02148 C 36.008892,109.02148 14.978516,87.991108 14.978516,62 14.978516,36.008892 36.008892,14.978516 62,14.978516 Z"
       id="path1-7" />
  </g>
</svg>
