<svg xmlns="http://www.w3.org/2000/svg" viewBox="0 0 554.01 218.09"><path fill="currentColor" d="M78.67 61.39c-19.51 0-37.42 7.68-47.33 18.55V0H0v216.81h31.34v-17.59c9.91 10.87 27.82 18.87 47.33 18.87 45.09 0 79.31-33.26 79.31-78.35s-34.22-78.35-79.31-78.35m-.64 125.68c-26.54 0-47.65-20.79-47.65-47.33s21.11-47.65 47.65-47.65S126 113.19 126 139.74s-21.11 47.33-47.97 47.33M185.65 0h31.34v216.81h-31.34zm368.36 140.06c0-44.77-32.94-78.67-74.51-78.67s-78.03 34.22-78.03 78.99 37.09 77.71 79.63 77.71c25.58 0 47.97-11.51 64.28-31.98l-23.03-21.75c-11.19 15.67-25.9 22.7-41.89 22.7-21.11 0-39.97-13.43-45.09-33.9h117.04c.96-4.16 1.6-8.31 1.6-13.11Zm-118.33-14.07c4.48-19.19 22.06-33.89 43.81-33.89 18.87 0 36.46 13.11 40.93 33.89zm-93.38 30.38c0 15.94-13.36 30.38-32.08 30.38s-30.55-13.11-30.55-30.7V62.67h-31.34v95.3c0 36.96 24.25 60.12 57.5 60.12 15.03 0 30.25-6.48 37.43-15.95v14.67h30.38V62.67H342.3z"/></svg>
