<svg xmlns="http://www.w3.org/2000/svg" viewBox="0 0 554.05 296.44"><path fill="currentColor" d="M161.03 138.68c0-44.75-33.96-77.75-78.7-77.75-19.36 0-37.13 7.62-46.97 18.41V0H4.25v215.16h31.1v-17.45c9.84 10.79 27.61 18.72 46.97 18.72 44.75 0 78.7-33 78.7-77.75Zm-126.63 0c0-26.34 20.95-47.28 47.29-47.28s47.6 20.94 47.6 47.28-20.95 46.97-47.6 46.97-47.29-20.63-47.29-46.97M188.49 0h31.1v215.16h-31.1zm293.2 216.43c25.39 0 47.6-11.43 63.79-31.73l-22.85-21.58c-11.11 15.55-25.71 22.53-41.57 22.53-20.95 0-39.67-13.33-44.75-33.64h116.15a56 56 0 0 0 1.59-13.01c0-44.43-32.69-78.07-73.95-78.07s-77.43 33.96-77.43 78.39 36.81 77.12 79.02 77.12ZM480.1 91.39c18.72 0 36.18 13.01 40.62 33.64h-84.1c4.44-19.04 21.9-33.64 43.48-33.64M344.9 200.6v14.56h30.15V62.19h-31.1v92.99c0 15.81-13.26 30.15-31.83 30.15s-30.32-13.01-30.32-30.47V62.19h-31.1v94.57c0 36.68 24.07 59.66 57.07 59.66 14.92 0 30.02-6.43 37.14-15.83Zm-93.91 49.01h.57c1.93 0 2.62.28 3.13.78s.85 1.23.85 3.12v25.64c0 1.9-.34 2.62-.85 3.12s-1.19.78-3.13.78h-.57v2.79h15.07v-2.79h-.57c-1.93 0-2.62-.28-3.13-.78s-.85-1.23-.85-3.12v-25.64c0-1.9.34-2.62.85-3.12s1.19-.78 3.13-.78h.57v-2.79h-15.07zm263.79 31.5c-6.31 0-8.98-4.91-8.98-10.87 0-6.58 3.41-10.2 8.02-10.2 2.84 0 4.49 2.01 4.49 4.12 0 1.12-.28 2.29-.28 3.18 0 2.06 1.54 2.9 2.84 2.9 2.27 0 3.13-1.9 3.13-3.9 0-4.57-3.87-8.92-10.24-8.92-8.47 0-13.36 6.3-13.36 14.88 0 7.53 4.66 14.1 12.96 14.1 7.68 0 10.86-5.97 11.2-11.71h-2.27a7.5 7.5 0 0 1-7.51 6.41Zm26.73-23.69c-7.39 0-12.4 6.13-12.4 14.77s5.23 14.22 12.91 14.22c6.88 0 10.75-5.35 11.26-11.71h-2.27c-1.08 4.07-3.75 6.69-7.96 6.69-5.86 0-8.81-4.29-8.81-10.82h19.05c0-7.47-4.21-13.16-11.77-13.16Zm-7.11 10.64c.4-4.74 3.35-7.92 6.82-7.92 3.75 0 6.31 2.62 6.31 7.92zm-137.41-15.38c2.05 0 3.7-1.62 3.7-3.62s-1.65-3.62-3.7-3.62-3.7 1.62-3.7 3.62 1.65 3.62 3.7 3.62m35.18 4.74c-1.93 0-4.26.95-5.8 2.12a11.2 11.2 0 0 0-6.77-2.12c-6.31 0-10.69 4.29-10.69 10.2a10 10 0 0 0 3.24 7.58c-1.42 1.23-2.73 3.12-2.73 5.07 0 1.34.46 2.68 1.48 3.62a6.1 6.1 0 0 0-3.75 5.3c0 3.46 2.9 7.25 12.51 7.25s15.07-4.13 15.07-9.31c0-1.62-.46-3.12-1.59-4.18-1.42-1.34-2.96-1.84-6.82-1.84h-9.95c-1.19 0-2.1-.28-2.56-.78a2 2 0 0 1-.57-1.39c0-.89.34-1.73.91-2.45 1.65.78 3.47 1.28 5.4 1.28 6.31 0 10.69-4.29 10.69-10.2a10 10 0 0 0-2.22-6.41 4 4 0 0 1 1.59-.39c1.93 0 2.79 1.67 4.38 1.67 1.42 0 2.16-1.23 2.16-2.23 0-1.56-1.25-2.79-3.98-2.79m-18.88 28.09c.8.22 1.48.33 3.3.33h9.55c1.42 0 2.22.22 2.9.78.51.45.85 1.12.85 2.06 0 2.9-4.27 4.96-9.95 4.96s-8.25-2.12-8.25-4.79a4.6 4.6 0 0 1 1.59-3.34Zm6.54-10.25c-3.58 0-5.23-4.85-5.23-8.81 0-3.4 1.25-6.52 4.72-6.52s5.23 4.85 5.23 8.81c0 3.4-1.25 6.52-4.72 6.52m74.46 7.3c-.45-.45-.8-1.11-.8-2.95v-12.32c0-3.57-.85-5.85-2.39-7.41-1.65-1.73-4.09-2.45-6.43-2.45-4.89 0-7.96 2.68-9.38 5.85v-5.3h-9.38v2.51h.46c1.88 0 2.5.28 3.01.78.45.45.8 1.11.8 2.95v15.39c0 1.84-.34 2.51-.8 2.95-.51.5-1.14.78-3.01.78h-.46v2.51h13.65v-2.51h-.23c-1.82 0-2.44-.28-2.96-.78-.46-.45-.8-1.11-.8-2.95v-7.97c0-4.01.63-6.13 1.88-7.64a6.7 6.7 0 0 1 5.23-2.4c1.82 0 3.18.61 4.09 1.62.8.89 1.31 2.17 1.31 5.18v11.21c0 1.84-.34 2.51-.8 2.95-.51.5-1.14.78-2.96.78h-.23v2.51h13.36v-2.51H497c-1.59 0-2.22-.28-2.73-.78Zm-194.74 0c-.45-.45-.8-1.11-.8-2.95v-12.32c0-3.57-.85-5.85-2.39-7.41-1.65-1.73-4.09-2.45-6.43-2.45-4.89 0-7.96 2.68-9.38 5.85v-5.3h-9.38v2.51h.46c1.88 0 2.5.28 3.01.78.46.45.8 1.11.8 2.95v15.39c0 1.84-.34 2.51-.8 2.95-.51.5-1.14.78-3.01.78h-.46v2.51h13.65v-2.51h-.23c-1.82 0-2.44-.28-2.96-.78-.46-.45-.8-1.11-.8-2.95v-7.97c0-4.01.63-6.13 1.88-7.64a6.7 6.7 0 0 1 5.23-2.4c1.82 0 3.18.61 4.09 1.62.8.89 1.31 2.17 1.31 5.18v11.21c0 1.84-.34 2.51-.8 2.95-.51.5-1.14.78-2.96.78h-.23v2.51h13.36v-2.51h-.45c-1.59 0-2.22-.28-2.73-.78Zm18.23-.34a3 3 0 0 1-2.33-.84c-.57-.61-.8-1.23-.8-3.01v-13.6c0-1.73.28-2.17.63-2.51.4-.39.85-.67 2.62-.67h4.72v-3.62h-7.96v-8.08h-2.27c-.63 5.3-2.79 8.08-8.81 9.2v2.51h2.44c1.76 0 2.22.28 2.62.67.34.33.63.78.63 2.51v14.1c0 3.46.74 5.02 1.99 6.08 1.08.89 2.5 1.45 4.72 1.45a8.5 8.5 0 0 0 7.22-4.24l-1.36-1.45a6.6 6.6 0 0 1-4.04 1.51Zm20.78-24.8c-7.39 0-12.4 6.13-12.4 14.77s5.23 14.22 12.91 14.22c6.88 0 10.75-5.35 11.26-11.71h-2.27c-1.08 4.07-3.75 6.69-7.96 6.69-5.86 0-8.81-4.29-8.81-10.82h19.05c0-7.47-4.21-13.16-11.77-13.16Zm-7.1 10.64c.4-4.74 3.35-7.92 6.82-7.92 3.75 0 6.31 2.62 6.31 7.92zm32.47 14.5c-.46-.45-.8-1.11-.8-2.95v-32.78h-9.67v2.51h.46c1.88 0 2.5.28 3.01.78.46.45.8 1.11.8 2.95v26.54c0 1.84-.34 2.51-.8 2.95-.51.5-1.14.78-3.01.78h-.46v2.51h13.93v-2.51h-.46c-1.88 0-2.5-.28-3.01-.78Zm36.69 0c-.45-.45-.8-1.11-.8-2.95v-21.63h-9.67v2.51h.45c1.88 0 2.5.28 3.01.78.45.45.8 1.11.8 2.95v15.39c0 1.84-.34 2.51-.8 2.95-.51.5-1.14.78-3.01.78h-.45v2.51h13.93v-2.51h-.45c-1.88 0-2.5-.28-3.01-.78m-18.46 0c-.45-.45-.8-1.11-.8-2.95v-32.78h-9.67v2.51h.46c1.88 0 2.5.28 3.01.78.46.45.8 1.11.8 2.95v26.54c0 1.84-.34 2.51-.8 2.95-.51.5-1.14.78-3.01.78h-.46v2.51h13.93v-2.51h-.45c-1.88 0-2.5-.28-3.01-.78m68.45-25.14c-7.39 0-12.4 6.13-12.4 14.77s5.23 14.22 12.91 14.22c6.88 0 10.75-5.35 11.26-11.71h-2.27c-1.08 4.07-3.75 6.69-7.96 6.69-5.86 0-8.81-4.29-8.81-10.82h19.05c0-7.47-4.21-13.16-11.77-13.16Zm-7.11 10.64c.4-4.74 3.36-7.92 6.82-7.92 3.75 0 6.31 2.62 6.31 7.92zM23.22 249.5c1.58 0 2.24.28 2.73.78s.82 1.23.82 3.12v10.7H10.11v-10.7c0-1.9.33-2.62.82-3.12s1.15-.78 2.73-.78v-2.79H0v2.79h.55c1.86 0 2.51.28 3.01.78.49.5.82 1.23.82 3.12v25.64c0 1.9-.33 2.62-.82 3.12s-1.15.78-3.01.78H0v2.79h13.66v-2.79c-1.58 0-2.24-.28-2.73-.78s-.82-1.23-.82-3.12v-12.15h16.66v12.15c0 1.9-.33 2.62-.82 3.12s-1.15.78-2.73.78v2.79h13.66v-2.79h-.55c-1.86 0-2.51-.28-3-.78s-.82-1.23-.82-3.12V253.4c0-1.9.33-2.62.82-3.12s1.15-.78 3-.78h.55v-2.79H23.22zm66.72 32.34a2 2 0 0 1-1.37-.5c-.33-.33-.55-.84-.55-1.95v-12.04c0-4.18-1.04-6.13-2.4-7.58-1.91-2.01-4.81-2.45-7.43-2.45-6.06 0-10.38 3.62-10.38 7.8 0 2.01 1.37 3.35 2.84 3.35 1.91 0 2.95-1.51 2.95-3.07 0-.61-.05-1.11-.05-1.62 0-2.56 2.19-3.74 4.48-3.74 1.58 0 2.68.45 3.55 1.34s1.31 2.17 1.31 5.13v3.51c-1.37-.17-2.08-.17-3.06-.17-8.09 0-12.84 2.79-12.84 8.64 0 4.74 3.77 7.8 8.47 7.8a8.3 8.3 0 0 0 7.59-4.63c.33 2.29 1.69 4.63 5.19 4.63 2.46 0 4.7-1.62 5.79-4.46l-1.8-1.28a3 3 0 0 1-2.29 1.28Zm-7.05-7.75c0 2.45-.22 3.73-.66 4.79a5.5 5.5 0 0 1-5.3 3.51c-2.9 0-4.75-2.17-4.75-4.4 0-3.9 3.99-5.35 8.09-5.35.49 0 1.37 0 2.62.17zm75.69 8.36c-.44-.45-.77-1.11-.77-2.95v-12.32c0-3.57-.82-5.85-2.29-7.41-1.58-1.73-3.93-2.45-6.17-2.45a9.4 9.4 0 0 0-8.74 5.3v-15.89h-9.29v2.51h.44c1.8 0 2.4.28 2.9.78.44.45.77 1.11.77 2.95v26.54c0 1.84-.33 2.51-.77 2.95-.49.5-1.09.78-2.9.78h-.44v2.51h13.11v-2.51h-.22c-1.75 0-2.35-.28-2.84-.78-.44-.45-.76-1.11-.76-2.95v-7.97c0-4.01.6-6.13 1.8-7.64a6.4 6.4 0 0 1 5.03-2.4c1.75 0 3.06.61 3.93 1.62.77.89 1.26 2.17 1.26 5.18v11.21c0 1.84-.33 2.51-.76 2.95-.49.5-1.09.78-2.84.78h-.22v2.51h12.84v-2.51h-.44q-1.89-.02-2.62-.78Zm-35.33-.33c-.98 0-1.69-.28-2.24-.84-.55-.61-.76-1.23-.76-3.01v-13.6c0-1.73.27-2.17.6-2.51.38-.39.82-.67 2.51-.67h4.53v-3.62h-7.65v-8.08h-2.19c-.6 5.3-2.68 8.08-8.47 9.2v2.51h2.35c1.69 0 2.13.28 2.51.67.33.33.6.78.6 2.51v14.1c0 3.46.71 5.02 1.91 6.08 1.04.89 2.4 1.45 4.53 1.45a8.2 8.2 0 0 0 6.94-4.24l-1.31-1.45a6.3 6.3 0 0 1-3.88 1.51Zm-17.15.33c-.44-.45-.77-1.11-.77-2.95v-32.78h-9.29v2.51h.44c1.8 0 2.4.28 2.9.78.44.45.76 1.11.76 2.95v26.54c0 1.84-.33 2.51-.76 2.95-.49.5-1.09.78-2.9.78h-.44v2.51h13.38v-2.51h-.44c-1.8 0-2.4-.28-2.9-.78Zm-54.44-25.14c-7.1 0-11.91 6.13-11.91 14.77s5.03 14.22 12.4 14.22c6.61 0 10.33-5.35 10.82-11.71h-2.19c-1.04 4.07-3.61 6.69-7.65 6.69-5.63 0-8.47-4.29-8.47-10.81h18.3c0-7.47-4.04-13.16-11.31-13.16Zm-6.83 10.65c.38-4.74 3.22-7.92 6.56-7.92 3.61 0 6.06 2.62 6.06 7.92z"/></svg>
