<svg xmlns="http://www.w3.org/2000/svg" viewBox="0 0 842.32 1000"><path fill="#b3b3b3" d="M824.67 779.3c-15.13 34.94-33.03 67.1-53.77 96.67-28.27 40.3-51.42 68.2-69.25 83.7-27.66 25.43-57.29 38.45-89.01 39.2-22.78 0-50.25-6.49-82.22-19.63-32.08-13.09-61.56-19.57-88.52-19.57-28.27 0-58.6 6.48-91.02 19.57-32.48 13.14-58.65 20-78.65 20.67q-45.63 1.96-91.03-40.24-29-25.28-72.43-86.67c-31.06-43.7-56.6-94.38-76.6-152.15Q0 627.25 0 539.5c0-67.02 14.48-124.82 43.49-173.26 22.8-38.9 53.12-69.6 91.07-92.12 37.96-22.53 78.97-34.01 123.14-34.75 24.16 0 55.85 7.48 95.23 22.17 39.27 14.74 64.49 22.21 75.54 22.21 8.27 0 36.28-8.74 83.77-26.16 44.9-16.16 82.8-22.85 113.85-20.22 84.14 6.8 147.34 39.96 189.38 99.7-75.25 45.6-112.47 109.46-111.73 191.37.68 63.81 23.83 116.9 69.32 159.07 20.62 19.56 43.64 34.69 69.26 45.43a748 748 0 0 1-17.65 46.35M631.7 20c0 50.02-18.27 96.71-54.69 139.93-43.95 51.38-97.1 81.08-154.76 76.39-.73-6-1.16-12.31-1.16-18.95 0-48.01 20.9-99.4 58.02-141.4q27.8-31.9 70.68-53.07C578.32 9 605.29 1.32 630.66 0c.74 6.69 1.05 13.37 1.05 20"/></svg>