<svg xmlns="http://www.w3.org/2000/svg" xml:space="preserve" width="120.92" height="129.16" viewBox="0 0 120.92 129.16"><linearGradient id="a" x1="226.86" x2="210.54" y1="284.51" y2="252.48" gradientTransform="translate(-124.7 -206.6)" gradientUnits="userSpaceOnUse"><stop offset="0" style="stop-color:#fcd08f"/><stop offset="1" style="stop-color:#f79673"/></linearGradient><path d="m89.18 84.52 28.02-15.34c3.17-1.73 6.49-6.16 0-9.7l-28.04-15.3-20.07 20.24z" style="fill:url(#a)"/><linearGradient id="b" x1="203.13" x2="140.99" y1="279.74" y2="346.37" gradientTransform="translate(-124.7 -206.6)" gradientUnits="userSpaceOnUse"><stop offset="0" style="stop-color:#e74047"/><stop offset="1" style="stop-color:#7f50a0"/></linearGradient><path d="m69.08 64.42-64.2 64.7c1.45.18 3.19-.2 5.2-1.3l79.1-43.3z" style="fill:url(#b)"/><linearGradient id="c" x1="203.46" x2="140.34" y1="261.67" y2="196.31" gradientTransform="translate(-124.7 -206.6)" gradientUnits="userSpaceOnUse"><stop offset="0" style="stop-color:#e6ffab"/><stop offset="1" style="stop-color:#47bebc"/></linearGradient><path d="m69.08 64.42 20.08-20.23L10.08 1.04a7.6 7.6 0 0 0-5.25-.9z" style="fill:url(#c)"/><linearGradient id="d" x1="159.24" x2="159.24" y1="335.72" y2="206.75" gradientTransform="translate(-124.7 -206.6)" gradientUnits="userSpaceOnUse"><stop offset="0" style="stop-color:#84e9db"/><stop offset="1" style="stop-color:#197491"/></linearGradient><path d="M69.08 64.42 4.83.15C2.18.75 0 3.04 0 7.65v113.76c0 4.34 1.71 7.4 4.88 7.7z" style="fill:url(#d)"/></svg>