<?xml version="1.0" encoding="UTF-8"?>
<svg id="Heart_Contour" data-name="Heart Contour" xmlns="http://www.w3.org/2000/svg" version="1.1" viewBox="0 0 1920 2160">
  <defs>
    <style>
      .cls-1 {
        fill: none;
        stroke: #fcfaf5;
        stroke-linecap: round;
        stroke-linejoin: round;
        stroke-width: 6px;
      }

      .cls-2 {
        fill: #fcfaf5;
        isolation: isolate;
        opacity: .5;
        stroke-width: 0px;
      }
    </style>
  </defs>
  <circle id="Node_2" data-name="Node 2" class="cls-2" cx="807.8" cy="1089" r="10"/>
  <circle id="Node_1" data-name="Node 1" class="cls-2" cx="599.8" cy="921" r="10"/>
  <g id="Heart_Silhouette" data-name="Heart Silhouette">
    <path class="cls-1" d="M614.6,481.4c0,12,.8,24.1,1.3,36.1,2.5,53.6,0,107.4-7.2,160.6-6.1,44.6-13.2,94.6-43.5,130.3-41.1,48.4-66.5,111-79.8,172.5-16.2,75-13.6,154.2,9.4,227.5,5,15.8,11.1,31.8,22.7,43.8,4.9,5,10.6,9.3,14.8,14.9,9.8,13.4,7.3,29,7.5,44.5.3,17.6,3.2,35.3,8.8,52,42.6,127.6,130.2,228.6,245.4,296.8,94.1,55.7,199.3,89.6,304.3,119.7,63.1,18.1,133.4,38.1,195.9,9,1.4-.6,2.8-1.3,4.2-2,27-13.3,46.6-33.9,52.5-42,41.8-57.4,55.2-126.5,65.4-195.2,10-67,17.1-134.8,13.6-202.4-3.9-74.1-22.7-143.3-55.9-209.6-8.4-16.8-18.3-31.3-18.3-31.3,0,0,14.2-2.3,11-13.9-3.2-15.8-6.9-27.8-6.9-27.8-22.3-64.4-40-78-54-124-2.8-9.2-5.4-69-2-78,4.1-11,28.2-19,28.2-27.5s-2.4-11.3,0-10.5c4.3,1.5,5.8,2,5.8,2,7.3,4.7,29.9,16.9,36.2,14.8"/>
    <path class="cls-1" d="M735.4,430c13.4,5.4,21,15.5,24.2,29.7,2.4,10.8,1.9,21.9,1.7,32.9-1.3,54.2,2.1,108.5,10.1,162.1,4.1.2,28.3,3.9,30.7.1,69.9-109.2,142-153.5,141.3-155.5-2.1-6.3-3-18-4.2-21-8.4-21-14.5-22.3-19.3-36-1.1-3.2-1.7-6.6-1.7-10v-5.4"/>
    <path class="cls-1" d="M743.8,806c5.5-27.2,14.5-59.6,29.4-94.5,9.2-21.4,19.1-40.3,28.9-56.7"/>
    <path class="cls-1" d="M1003.4,720.5c15.5-23.6,34.2-50.7,45-61.5,4.2-4.2,10.5-4.2,10.5-4.2,16.8,21,14.9,36.2,14.9,36.2"/>
    <path class="cls-1" d="M1439.1,782.9l-49.1-45.2c-2.2-2-3.4-4.8-3.4-7.7v-11.7c0-1.7.4-3.4,1.2-5l15.6-29.1"/>
    <path class="cls-1" d="M1363.5,665.3c-2.1,2.1-34.4,22.8-37.8,25.2-19.1,13.2-50.1,8-71.5,6.4-76.9-5.7-154.1-16-230.3,4.2l-9.3,3.9"/>
    <path class="cls-1" d="M956,409s14.7,12.6,31.5,27.3c36.4,31.8,88,28,127.4,54.8,59.4,40.4,89.7,130.8,95.3,199.4"/>
    <path class="cls-1" d="M1016.7,416.1c-4,9.7,2.3,39.1,2.3,39.1"/>
    <path class="cls-1" d="M1064,415.3c20.1,31.5,13.8,48.3,26.4,58.8,0,0,0,0,10.5,8.4h0"/>
    <path class="cls-1" d="M1086.2,465.7s8.4-2.1,16.8-2.1,13.9,4.3,18.3,10.5c9,12.6,6.9,23.1,6.9,27.3"/>
    <path class="cls-1" d="M1242.7,815.2c29.9-1.4,60.3,2.2,89.2,10"/>
    <path class="cls-1" d="M1123,626.4c-9.9,1-24.1,3.6-39.9,10.5-15.2,6.7-26.4,14.9-33.8,21.3"/>
  </g>
</svg>